# xmcd
#
# Track frame offsets:
#	180
#	18790
#	35780
#	57909
#	75493
#	96831
#	119044
#	136650
#	154571
#	171622
#	188195
#	205004
#	225727
#	246408
#	260743
#
# Disc length: 3713 seconds
#
# Revision: 0
# Processed by: cddbd v1.5.2PL0 Copyright (c) Steve Scherf et al.
# Submitted via: audiograbber 1.83.01
#
DISCID=ce0e7f0f
DTITLE=Otto Serge y Rafael Ricardo - Los 30 Mejores 2
DYEAR=1999
DGENRE=Folklore
TTITLE0=Voy a cambiar por ti
TTITLE1=Luna
TTITLE2=Mi dije de amor
TTITLE3=Palabras al viento
TTITLE4=Mil cadenas
TTITLE5=Gotas de llanto
TTITLE6=Arbolito viejo
TTITLE7=El alumno mayor
TTITLE8=Mi morenita
TTITLE9=No digas que no te quiero
TTITLE10=Altar de amores
TTITLE11=Eres
TTITLE12=Solo canciones
TTITLE13=Muchachas patillaleras
TTITLE14=Solo rosas
EXTD=
EXTT0=
EXTT1=
EXTT2=
EXTT3=
EXTT4=
EXTT5=
EXTT6=
EXTT7=
EXTT8=
EXTT9=
EXTT10=
EXTT11=
EXTT12=
EXTT13=
EXTT14=
PLAYORDER=
